name Run_20002_IK.mot
datacolumns 164
datarows 4
range 0.96 0.99
endheader
time	         pelvis_tilt	         pelvis_list	     pelvis_rotation	           pelvis_tx	           pelvis_ty	           pelvis_tz	       hip_flexion_r	     hip_adduction_r	      hip_rotation_r	        knee_angle_r	       ankle_angle_r	       hip_flexion_l	     hip_adduction_l	      hip_rotation_l	        knee_angle_l	       ankle_angle_l	    lumbar_extension	      lumbar_bending	     lumbar_rotation	          arm_flex_r	           arm_add_r	           arm_rot_r	        elbow_flex_r	           pro_sup_r	          arm_flex_l	           arm_add_l	           arm_rot_l	        elbow_flex_l	           pro_sup_l	    subtalar_angle_r	         mtp_angle_r	    subtalar_angle_l	         mtp_angle_l	        wrist_flex_r	         wrist_dev_r	        wrist_flex_l	         wrist_dev_l	             LASI_tx	             LASI_ty	             LASI_tz	             RASI_tx	             RASI_ty	             RASI_tz	             LPSI_tx	             LPSI_ty	             LPSI_tz	             RPSI_tx	             RPSI_ty	             RPSI_tz	             RTH1_tx	             RTH1_ty	             RTH1_tz	             RTH2_tx	             RTH2_ty	             RTH2_tz	             RTH3_tx	             RTH3_ty	             RTH3_tz	             LTH1_tx	             LTH1_ty	             LTH1_tz	             LTH2_tx	             LTH2_ty	             LTH2_tz	             LTH3_tx	             LTH3_ty	             LTH3_tz	             RTB1_tx	             RTB1_ty	             RTB1_tz	             RTB2_tx	             RTB2_ty	             RTB2_tz	             RTB3_tx	             RTB3_ty	             RTB3_tz	             LTB1_tx	             LTB1_ty	             LTB1_tz	             LTB2_tx	             LTB2_ty	             LTB2_tz	             LTB3_tx	             LTB3_ty	             LTB3_tz	             RCAL_tx	             RCAL_ty	             RCAL_tz	             RTOE_tx	             RTOE_ty	             RTOE_tz	             RMT5_tx	             RMT5_ty	             RMT5_tz	             LCAL_tx	             LCAL_ty	             LCAL_tz	             LTOE_tx	             LTOE_ty	             LTOE_tz	             LMT5_tx	             LMT5_ty	             LMT5_tz	             LACR_tx	             LACR_ty	             LACR_tz	             RACR_tx	             RACR_ty	             RACR_tz	             CLAV_tx	             CLAV_ty	             CLAV_tz	               C7_tx	               C7_ty	               C7_tz	             RUA1_tx	             RUA1_ty	             RUA1_tz	             RUA2_tx	             RUA2_ty	             RUA2_tz	             RUA3_tx	             RUA3_ty	             RUA3_tz	             RLEL_tx	             RLEL_ty	             RLEL_tz	             RMEL_tx	             RMEL_ty	             RMEL_tz	             LUA1_tx	             LUA1_ty	             LUA1_tz	             LUA2_tx	             LUA2_ty	             LUA2_tz	             LUA3_tx	             LUA3_ty	             LUA3_tz	             LLEL_tx	             LLEL_ty	             LLEL_tz	             LMEL_tx	             LMEL_ty	             LMEL_tz	      RFAsuperior_tx	      RFAsuperior_ty	      RFAsuperior_tz	        RFAradius_tx	        RFAradius_ty	        RFAradius_tz	          RFAulna_tx	          RFAulna_ty	          RFAulna_tz	      LFAsuperior_tx	      LFAsuperior_ty	      LFAsuperior_tz	        LFAradius_tx	        LFAradius_ty	        LFAradius_tz	          LFAulna_tx	          LFAulna_ty	          LFAulna_tz	
0.96	        -12.14700936	         -0.00205335	         -5.46756241	          1.04764422	          1.04509526	         -0.34244194	         28.54032712	          3.74556523	          2.75998226	         -9.45466219	          6.25729163	          2.88447322	          4.15209993	          0.98552231	        -33.56051323	        -14.28143711	          2.05424747	          2.25634046	         -4.86165225	        -45.45516389	        -16.34180508	        -16.54600361	        102.42887054	        108.62335016	        -26.49913870	        -12.13582248	         -4.73321882	        131.68371746	         97.68816273	          0.00000000	          0.00000000	          0.00000000	          0.00000000	          0.00000000	          0.00000000	          0.00000000	          0.00000000	          1.07545055	          1.07696883	         -0.46428694	          1.05012477	          1.09216653	         -0.22327363	          0.91394675	          1.14244852	         -0.41789382	          0.90055872	          1.14033440	         -0.30587497	          0.98456399	          0.97117453	         -0.16872198	          0.97040094	          0.81485553	         -0.19415881	          1.04669248	          0.67670688	         -0.19745582	          1.01224633	          0.94374566	         -0.51918435	          0.90163013	          0.81109133	         -0.48711905	          0.92516194	          0.66837092	         -0.47378233	          1.15460537	          0.43875935	         -0.26155775	          1.07773793	          0.38249247	         -0.19887263	          1.15099060	          0.25097582	         -0.27891875	          0.86932951	          0.44132877	         -0.40587037	          0.74178599	          0.40921566	         -0.46805106	          0.71097821	          0.29175221	         -0.40796777	          1.05515662	          0.09407286	         -0.28532008	          1.29068913	          0.14851423	         -0.30685674	          1.25539690	          0.09691810	         -0.21781966	          0.54082862	          0.28965704	         -0.40563080	          0.65747980	          0.08949384	         -0.35640366	          0.60777471	          0.08938736	         -0.45645022	          1.05112830	          1.57806744	         -0.49942508	          1.02828739	          1.55500724	         -0.18090500	          1.09650789	          1.52032429	         -0.30270791	          0.98918079	          1.59714817	         -0.34663343	          0.88601859	          1.50219431	         -0.15366937	          0.89923364	          1.43763165	         -0.10680571	          0.80228398	          1.39375538	         -0.09247433	          0.74561488	          1.34958480	         -0.07871372	          0.76114656	          1.31884503	         -0.16314164	          0.96633302	          1.47932255	         -0.57250768	          1.00074891	          1.40332836	         -0.59027958	          0.93660317	          1.33382737	         -0.62547286	          0.92848257	          1.26429352	         -0.64201807	          0.89766313	          1.24647103	         -0.55732493	          0.81013847	          1.26363636	         -0.05656617	          0.95785769	          1.16803257	         -0.10532896	          0.90906342	          1.13434142	         -0.07023022	          1.00173586	          1.23732875	         -0.61304311	          1.13317947	          1.30016963	         -0.49575298	          1.15179535	          1.23133072	         -0.51047814	
0.97	        -11.93380487	         -0.03695464	         -5.50816106	          1.04729997	          1.04183146	         -0.34184822	         28.40138289	          3.94163338	          2.89544943	        -10.29724329	          6.19761959	          3.89186681	          4.16645475	          1.25847792	        -37.31536373	        -14.64645111	          1.76413892	          2.41804066	         -4.47877216	        -45.03850313	        -16.38994580	        -16.60431592	        102.78222789	        108.66639964	        -26.98041940	        -12.14916956	         -4.51488089	        131.20244749	         97.51534149	          0.00000000	          0.00000000	          0.00000000	          0.00000000	          0.00000000	          0.00000000	          0.00000000	          0.00000000	          1.07521936	          1.07438779	         -0.46406882	          1.05005336	          1.08869983	         -0.22231552	          0.91350299	          1.13854899	         -0.41725724	          0.89969094	          1.13619120	         -0.30539791	          0.98392827	          0.96738477	         -0.16800716	          0.97005177	          0.81117567	         -0.19349157	          1.04755922	          0.67324825	         -0.19788494	          1.01400811	          0.93983458	         -0.51780931	          0.90564279	          0.80530837	         -0.48616259	          0.93201818	          0.66301317	         -0.47303733	          1.15319201	          0.43452124	         -0.26291906	          1.07645567	          0.37886947	         -0.19919860	          1.14741956	          0.24679805	         -0.28063180	          0.87358425	          0.43731965	         -0.40528300	          0.74546782	          0.41069248	         -0.46919962	          0.70891794	          0.29464961	         -0.40961337	          1.04944369	          0.09197052	         -0.28675487	          1.28554493	          0.14283190	         -0.30975229	          1.24959544	          0.09109333	         -0.22019318	          0.53938133	          0.30020093	         -0.40931962	          0.64612320	          0.09482417	         -0.35853296	          0.59613840	          0.09599872	         -0.45825014	          1.05016080	          1.57514667	         -0.49781893	          1.02866910	          1.55082549	         -0.17973986	          1.09630047	          1.51663470	         -0.30174117	          0.98881652	          1.59342999	         -0.34483069	          0.88681841	          1.49750395	         -0.15095996	          0.90061509	          1.43280059	         -0.10480063	          0.80394844	          1.38829282	         -0.08985919	          0.74781793	          1.34352972	         -0.07597526	          0.76308478	          1.31283091	         -0.16040406	          0.96426416	          1.47744975	         -0.57068124	          0.99808008	          1.40156158	         -0.58939185	          0.93325715	          1.33282470	         -0.62463612	          0.92465915	          1.26319140	         -0.64124865	          0.89242865	          1.24546420	         -0.55605927	          0.81353661	          1.25842684	         -0.05434398	          0.96200993	          1.16462786	         -0.10414891	          0.91392348	          1.13023665	         -0.06866779	          0.99754569	          1.23462011	         -0.61272402	          1.13062701	          1.29436571	         -0.49533962	          1.14774757	          1.22525859	         -0.51057452	
0.98	        -11.82191760	         -0.12067842	         -5.50864257	          1.04689917	          1.03741705	         -0.34135644	         28.47539609	          4.13744099	          2.65195383	        -11.86974393	          5.44762190	          5.15280631	          4.04730222	          1.27253787	        -41.33514414	        -14.32974500	          1.58769100	          2.64909891	         -4.08455864	        -44.51675871	        -16.51208360	        -16.60867601	        103.05391047	        108.66034691	        -27.44439640	        -12.13416355	         -4.34792977	        130.49075805	         97.57961561	          0.00000000	          0.00000000	          0.00000000	          0.00000000	          0.00000000	          0.00000000	          0.00000000	          0.00000000	          1.07498325	          1.07048139	         -0.46435613	          1.04997387	          1.08374848	         -0.22143439	          0.91295406	          1.13360335	         -0.41663048	          0.89893089	          1.13111889	         -0.30496218	          0.98276090	          0.96279707	         -0.16707364	          0.96995038	          0.80659779	         -0.19331097	          1.04867566	          0.66926106	         -0.19830776	          1.01555658	          0.93504827	         -0.51653611	          0.90967402	          0.79867409	         -0.48484595	          0.93921883	          0.65689345	         -0.47219490	          1.15073923	          0.42879321	         -0.26363581	          1.07326347	          0.37440424	         -0.19961109	          1.14124899	          0.24121836	         -0.28182285	          0.87888545	          0.43264293	         -0.40545380	          0.75001699	          0.41211435	         -0.47033025	          0.70772958	          0.29769763	         -0.41150801	          1.03964118	          0.09105013	         -0.28826022	          1.27687853	          0.13228129	         -0.31241607	          1.23902983	          0.08205488	         -0.22232050	          0.53824708	          0.31027883	         -0.41216880	          0.63732795	          0.10088043	         -0.36167988	          0.58620111	          0.10361526	         -0.46082096	          1.04910523	          1.57115689	         -0.49626305	          1.02917219	          1.54558663	         -0.17859541	          1.09606574	          1.51188159	         -0.30083684	          0.98842788	          1.58871502	         -0.34305008	          0.88778077	          1.49153910	         -0.14781157	          0.90247223	          1.42654443	         -0.10262095	          0.80623940	          1.38125954	         -0.08673679	          0.75069485	          1.33590986	         -0.07265398	          0.76569986	          1.30529034	         -0.15723741	          0.96209591	          1.47452184	         -0.56886844	          0.99521987	          1.39862586	         -0.58835375	          0.92966847	          1.33070841	         -0.62359855	          0.92048827	          1.26106882	         -0.64021308	          0.88770978	          1.24336291	         -0.55489685	          0.81768897	          1.25171148	         -0.05169236	          0.96686020	          1.15989393	         -0.10284591	          0.91957154	          1.12472829	         -0.06689508	          0.99298158	          1.23069720	         -0.61243269	          1.12797783	          1.28665343	         -0.49507804	          1.14353297	          1.21731141	         -0.51123610	
0.99	        -11.72346384	         -0.25337040	         -5.46791209	          1.04659032	          1.03203139	         -0.34092305	         28.61820584	          4.29080191	          1.82575813	        -13.97648126	          3.99582398	          6.52541050	          3.76209098	          1.03267216	        -45.51897119	        -13.24080819	          1.44273003	          2.93112326	         -3.67983515	        -43.88554764	        -16.68984140	        -16.56295608	        103.21879555	        108.63737405	        -27.88306798	        -12.10275535	         -4.20835686	        129.56029008	         97.91476631	          0.00000000	          0.00000000	          0.00000000	          0.00000000	          0.00000000	          0.00000000	          0.00000000	          0.00000000	          1.07480991	          1.06529407	         -0.46465530	          1.04989738	          1.07783745	         -0.22084188	          0.91230786	          1.12770483	         -0.41596510	          0.89835653	          1.12518648	         -0.30435160	          0.98133432	          0.95728962	         -0.16612521	          0.96960211	          0.80108467	         -0.19367482	          1.04955711	          0.66443748	         -0.19846126	          1.01688120	          0.92949316	         -0.51540356	          0.91372715	          0.79126728	         -0.48344916	          0.94670376	          0.65013249	         -0.47145278	          1.14739185	          0.42170761	         -0.26369906	          1.06808233	          0.36904480	         -0.20042989	          1.13300881	          0.23441117	         -0.28291712	          0.88508561	          0.42746814	         -0.40649553	          0.75519322	          0.41370025	         -0.47142115	          0.70758242	          0.30086208	         -0.41383971	          1.02656929	          0.09131754	         -0.29022658	          1.26531563	          0.11677214	         -0.31387184	          1.22443564	          0.07109085	         -0.22363382	          0.53755997	          0.31992593	         -0.41393181	          0.63154605	          0.10757936	         -0.36601160	          0.57873910	          0.11229794	         -0.46438611	          1.04791700	          1.56611622	         -0.49479152	          1.02978928	          1.53935170	         -0.17744853	          1.09584901	          1.50606797	         -0.30011224	          0.98792674	          1.58300254	         -0.34130960	          0.88891549	          1.48425532	         -0.14447124	          0.90478810	          1.41890173	         -0.10035049	          0.80915861	          1.37271757	         -0.08320269	          0.75423840	          1.32676060	         -0.06883271	          0.76892579	          1.29632243	         -0.15365502	          0.95979263	          1.47051806	         -0.56704774	          0.99220163	          1.39451353	         -0.58716594	          0.92588248	          1.32742742	         -0.62228948	          0.91599431	          1.25790152	         -0.63896019	          0.88355101	          1.24013344	         -0.55389800	          0.82254409	          1.24351674	         -0.04866048	          0.97235719	          1.15382796	         -0.10145461	          0.92597530	          1.11785283	         -0.06496493	          0.98803509	          1.22557282	         -0.61217130	          1.12514765	          1.27713376	         -0.49491202	          1.13904610	          1.20760203	         -0.51237349	
